<svg width="781" height="742" viewBox="0 0 781 742" fill="none" xmlns="http://www.w3.org/2000/svg">
<rect width="540" height="536.66" rx="151" transform="matrix(0.724815 -0.688944 0.724815 0.688944 0 372.029)" fill="#FFC700"/>
<path d="M108.8 488.602L137.6 477.802L236.6 238.402H247.4L350 483.202L368 488.602V494.002H324.8C312.32 494.002 302.12 491.242 294.2 485.722C286.28 479.962 280.4 472.522 276.56 463.402L258.2 420.202H172.16L148.4 477.802L175.4 488.602V494.002H108.8V488.602ZM175.76 411.202H254.6L215 316.522L175.76 411.202ZM375.088 488.602L396.688 483.202V324.802L375.088 319.402V314.002H407.488C421.648 314.002 432.808 318.562 440.968 327.682C444.088 331.282 446.728 335.722 448.888 341.002C452.488 335.722 456.928 330.922 462.208 326.602C474.208 317.002 487.648 312.202 502.528 312.202C515.248 312.202 524.728 315.202 530.968 321.202C537.448 326.962 540.688 335.362 540.688 346.402C540.688 354.562 538.168 361.162 533.128 366.202C528.328 371.002 521.848 373.402 513.688 373.402C510.328 373.402 506.968 373.162 503.608 372.682L499.288 371.602V321.202C487.048 321.202 475.888 326.002 465.808 335.602C461.008 340.402 457.168 345.202 454.288 350.002V483.202L475.888 488.602V494.002H375.088V488.602ZM556.845 488.602L578.445 483.202V324.802L556.845 319.402V314.002H603.645C625.245 314.002 636.045 324.802 636.045 346.402V483.202L657.645 488.602V494.002H556.845V488.602ZM603.645 292.402C596.445 292.402 590.445 290.002 585.645 285.202C580.845 280.402 578.445 274.402 578.445 267.202C578.445 260.002 580.845 254.002 585.645 249.202C590.445 244.402 596.445 242.002 603.645 242.002C610.845 242.002 616.845 244.402 621.645 249.202C626.445 254.002 628.845 260.002 628.845 267.202C628.845 274.402 626.445 280.402 621.645 285.202C616.845 290.002 610.845 292.402 603.645 292.402Z" fill="white"/>
</svg>
